<?xml version="1.0" encoding="UTF-8"?>
<svg xmlns="http://www.w3.org/2000/svg" xmlns:xlink="http://www.w3.org/1999/xlink" width="85px" height="85px" viewBox="0 0 85 85" version="1.1">
<g id="surface1">
<path style=" stroke:none;fill-rule:nonzero;fill:rgb(0%,0%,0%);fill-opacity:1;" d="M 60.71875 0.109375 C 57.035156 1.167969 54.105469 8.75 51.710938 23.441406 C 50.53125 30.6875 49.328125 40.375 48.734375 47.535156 C 48.285156 52.878906 48.078125 57.195312 48.046875 62.003906 C 48.019531 65.816406 48.105469 69.148438 48.316406 72.007812 C 48.601562 75.890625 49.261719 79.523438 50.085938 81.789062 C 50.632812 83.292969 51.421875 84.351562 52.246094 84.710938 C 52.636719 84.878906 53.542969 84.769531 53.902344 84.523438 C 55.078125 83.679688 55.875 82.050781 56.953125 78.214844 C 57.011719 78.027344 57.066406 77.894531 57.078125 77.925781 C 57.089844 77.964844 57.03125 79.171875 56.945312 80.609375 C 56.867188 82.058594 56.800781 83.292969 56.808594 83.371094 C 56.824219 83.484375 57.199219 83.503906 58.914062 83.503906 C 60.058594 83.503906 61.019531 83.460938 61.042969 83.425781 C 61.089844 83.324219 66.164062 37.324219 66.136719 37.203125 C 66.125 37.15625 64.292969 37.113281 62.058594 37.113281 C 58.84375 37.113281 57.984375 37.140625 57.957031 37.234375 C 57.90625 37.453125 56.300781 52.375 56.320312 52.476562 C 56.332031 52.535156 56.851562 52.578125 57.722656 52.578125 C 58.871094 52.578125 59.109375 52.597656 59.125 52.71875 C 59.144531 52.886719 58.867188 55.429688 58.621094 57.304688 C 57.804688 63.539062 56.820312 67.941406 55.90625 69.375 C 55.566406 69.914062 55.363281 70.078125 55.046875 70.078125 C 54.792969 70.078125 54.742188 70.042969 54.546875 69.753906 C 53.808594 68.644531 53.613281 65.652344 53.921875 60.035156 C 54.066406 57.304688 54.246094 55.089844 54.707031 50.230469 C 55.359375 43.335938 56.0625 36.933594 56.890625 30.328125 C 57.746094 23.433594 58.515625 19.023438 59.269531 16.742188 C 59.535156 15.921875 59.628906 15.714844 59.863281 15.371094 C 60.242188 14.824219 60.507812 14.636719 60.804688 14.683594 C 61.277344 14.773438 61.570312 15.671875 61.765625 17.578125 C 61.917969 19.015625 62.082031 22.726562 62.121094 25.519531 C 62.136719 26.515625 62.160156 27.066406 62.183594 27.09375 C 62.230469 27.15625 67.410156 21.769531 67.46875 21.609375 C 67.546875 21.359375 67.433594 17.28125 67.269531 14.957031 C 66.855469 8.789062 65.773438 4.277344 64.167969 1.945312 C 63.136719 0.441406 61.882812 -0.230469 60.71875 0.109375 Z M 60.71875 0.109375 "/>
<path style=" stroke:none;fill-rule:nonzero;fill:rgb(0%,0%,0%);fill-opacity:1;" d="M 77.816406 0.300781 C 76.152344 0.90625 74.667969 2.933594 73.269531 6.53125 C 72.890625 7.511719 72.066406 10.085938 71.71875 11.375 C 70.761719 14.921875 69.960938 18.8125 69.089844 24.144531 C 67.644531 32.964844 66.429688 43.539062 65.859375 52.246094 C 65.578125 56.496094 65.464844 59.390625 65.4375 62.949219 C 65.402344 68.335938 65.617188 72.140625 66.152344 75.582031 C 66.664062 78.855469 67.375 81.109375 68.394531 82.738281 C 69.332031 84.234375 70.746094 85.109375 71.984375 84.972656 C 74.066406 84.742188 76.078125 81.847656 77.820312 76.621094 C 79.601562 71.261719 81.015625 64.128906 82.464844 53.125 C 83.746094 43.386719 84.554688 34.269531 84.851562 26.136719 C 84.929688 24.136719 84.953125 19.632812 84.90625 17.835938 C 84.683594 9.964844 83.699219 4.816406 81.917969 2.183594 C 81.339844 1.328125 80.753906 0.789062 80.023438 0.449219 C 79.621094 0.246094 78.210938 0.160156 77.816406 0.300781 Z M 78.542969 15.125 C 78.996094 15.863281 79.191406 17.675781 79.160156 20.851562 C 79.117188 24.839844 78.730469 30.148438 77.949219 37.511719 C 77.828125 38.6875 77.609375 40.773438 77.472656 42.148438 C 76.414062 52.625 75.46875 59.851562 74.539062 64.570312 C 74.019531 67.21875 73.433594 69.179688 72.953125 69.902344 C 72.710938 70.265625 72.6875 70.28125 72.367188 70.28125 C 72.082031 70.28125 72.019531 70.253906 71.894531 70.054688 C 71.425781 69.296875 71.21875 67.710938 71.21875 64.796875 C 71.21875 61.625 71.410156 58.671875 72.074219 51.578125 C 72.851562 43.257812 73.78125 34.847656 74.746094 27.484375 C 75.539062 21.390625 76.328125 17.5 77.109375 15.800781 C 77.601562 14.746094 78.148438 14.488281 78.542969 15.125 Z M 78.542969 15.125 "/>
<path style=" stroke:none;fill-rule:nonzero;fill:rgb(0%,0%,0%);fill-opacity:1;" d="M 3.277344 1.714844 C 3.273438 1.785156 3.257812 11.699219 3.246094 23.742188 C 3.230469 35.785156 3.210938 47.617188 3.195312 50.035156 C 3.171875 54.402344 3.171875 54.421875 3.082031 55.316406 C 3.007812 56.117188 0.0703125 82.796875 0.0195312 83.222656 C -0.00390625 83.394531 0.148438 83.40625 3.007812 83.40625 L 6.019531 83.40625 L 7.503906 69.859375 C 8.554688 60.328125 9.035156 56.066406 9.136719 55.46875 C 9.210938 55 10.746094 47.816406 12.542969 39.507812 C 19.011719 9.527344 20.632812 1.972656 20.648438 1.785156 C 20.664062 1.59375 20.609375 1.59375 17.355469 1.59375 C 14.246094 1.59375 14.039062 1.605469 13.976562 1.769531 C 13.941406 1.867188 12.757812 8.378906 11.34375 16.25 C 9.132812 28.601562 8.777344 30.519531 8.769531 30.21875 C 8.765625 30.027344 8.855469 23.785156 8.980469 16.339844 C 9.097656 8.898438 9.195312 2.535156 9.195312 2.203125 L 9.195312 1.59375 L 6.242188 1.59375 C 3.910156 1.59375 3.292969 1.628906 3.277344 1.714844 Z M 3.277344 1.714844 "/>
<path style=" stroke:none;fill-rule:nonzero;fill:rgb(0%,0%,0%);fill-opacity:1;" d="M 22.261719 2.214844 C 21.890625 4.261719 8.398438 83.222656 8.398438 83.355469 C 8.398438 83.484375 8.734375 83.503906 11.410156 83.503906 C 13.0625 83.503906 14.433594 83.460938 14.453125 83.425781 C 14.476562 83.371094 14.992188 80.132812 15.601562 76.210938 C 16.203125 72.289062 16.71875 69.007812 16.738281 68.917969 C 16.769531 68.75 16.917969 68.738281 19.191406 68.738281 L 21.609375 68.738281 L 21.609375 68.96875 C 21.609375 69.085938 21.425781 72.308594 21.199219 76.121094 C 20.972656 79.929688 20.785156 83.152344 20.785156 83.273438 L 20.785156 83.503906 L 23.628906 83.503906 C 25.191406 83.503906 26.492188 83.460938 26.511719 83.425781 C 26.554688 83.34375 30.476562 1.835938 30.453125 1.664062 C 30.445312 1.628906 28.625 1.59375 26.40625 1.59375 L 22.371094 1.59375 Z M 23.496094 36.523438 C 22.964844 45.554688 22.527344 53.027344 22.515625 53.117188 C 22.492188 53.265625 22.347656 53.273438 20.867188 53.273438 C 19.457031 53.273438 19.238281 53.257812 19.238281 53.125 C 19.238281 52.964844 24.332031 20.09375 24.394531 19.859375 C 24.421875 19.746094 24.429688 19.753906 24.4375 19.914062 C 24.445312 20.011719 24.019531 27.492188 23.496094 36.523438 Z M 23.496094 36.523438 "/>
<path style=" stroke:none;fill-rule:nonzero;fill:rgb(0%,0%,0%);fill-opacity:1;" d="M 36.09375 1.714844 C 35.921875 3.0625 27.152344 83.285156 27.160156 83.371094 C 27.175781 83.484375 27.660156 83.503906 29.902344 83.484375 L 32.628906 83.453125 L 35.273438 59.410156 C 36.730469 46.191406 37.9375 35.328125 37.953125 35.273438 C 37.976562 35.210938 37.988281 35.40625 37.988281 35.816406 C 37.984375 36.171875 37.800781 47.007812 37.574219 59.910156 C 37.355469 72.800781 37.179688 83.382812 37.1875 83.425781 C 37.191406 83.476562 38.617188 83.503906 40.351562 83.503906 C 43.023438 83.503906 43.519531 83.484375 43.550781 83.363281 C 43.59375 83.203125 52.515625 1.988281 52.515625 1.746094 C 52.515625 1.605469 52.238281 1.59375 49.777344 1.617188 L 47.03125 1.644531 L 44.5 24.789062 C 43.109375 37.519531 41.957031 47.957031 41.953125 47.976562 C 41.949219 47.996094 41.933594 47.996094 41.925781 47.976562 C 41.921875 47.957031 42.074219 37.859375 42.269531 25.539062 C 42.472656 13.21875 42.625 2.800781 42.621094 2.394531 L 42.617188 1.644531 L 39.363281 1.617188 C 36.777344 1.59375 36.101562 1.617188 36.09375 1.714844 Z M 36.09375 1.714844 "/>
</g>
</svg>
