<?xml version="1.0" standalone="no"?>
<!DOCTYPE svg PUBLIC "-//W3C//DTD SVG 20010904//EN"
 "http://www.w3.org/TR/2001/REC-SVG-20010904/DTD/svg10.dtd">
<svg version="1.0" xmlns="http://www.w3.org/2000/svg"
 width="393.000000pt" height="128.000000pt" viewBox="0 0 393.000000 128.000000"
 preserveAspectRatio="xMidYMid meet">

<g transform="translate(0.000000,128.000000) scale(0.100000,-0.100000)"
fill="#000000" stroke="none">
<path d="M731 1269 c-64 -12 -184 -72 -262 -130 -87 -64 -233 -217 -291 -305
-66 -99 -124 -220 -149 -310 -31 -111 -31 -250 0 -319 58 -131 189 -192 356
-165 39 6 153 32 255 57 162 41 199 47 295 47 138 1 199 -18 261 -80 l44 -43
31 28 c75 69 229 65 369 -9 l55 -30 -50 46 c-131 122 -245 173 -400 181 -126
7 -194 -4 -480 -74 -203 -50 -242 -57 -335 -57 -89 -1 -111 2 -145 21 -113 60
-142 177 -90 359 86 302 416 707 594 731 71 10 100 -42 38 -65 -37 -13 -72
-65 -66 -97 5 -24 39 -31 69 -15 24 13 70 103 70 138 0 38 -27 79 -61 91 -36
12 -46 12 -108 0z"/>
<path d="M2561 1250 c-192 -69 -395 -249 -562 -499 -84 -124 -117 -188 -157
-303 -53 -148 -52 -254 3 -336 54 -82 152 -100 262 -47 71 34 202 164 253 250
120 203 100 378 -39 337 -120 -36 -216 -164 -247 -326 l-7 -40 59 46 c32 25
69 51 82 57 12 7 22 19 22 29 1 57 94 182 136 182 109 0 -20 -312 -175 -424
-85 -62 -138 -66 -187 -15 -117 122 84 566 398 878 119 119 263 204 312 185
11 -4 1 -17 -42 -48 -118 -87 -222 -241 -222 -327 0 -41 27 -79 55 -79 112 0
284 234 285 387 0 33 4 43 20 48 41 13 154 -33 285 -115 70 -44 131 -79 134
-78 4 2 26 24 49 49 l41 46 -62 37 c-149 89 -226 121 -302 124 -48 3 -92 -2
-129 -12 -51 -15 -59 -15 -79 -1 -30 21 -120 19 -186 -5z m199 -83 c0 -27 -31
-129 -51 -170 -64 -127 -204 -231 -224 -167 -11 34 4 76 55 152 78 119 220
238 220 185z"/>
<path d="M3537 1241 c-62 -32 -139 -96 -234 -194 -141 -147 -251 -303 -373
-532 -58 -109 -63 -115 -99 -115 -18 0 -22 4 -16 18 32 72 46 131 42 167 -24
175 -290 17 -427 -255 -103 -204 -66 -343 75 -281 64 28 170 134 230 229 44
69 54 80 84 86 19 3 36 4 38 2 2 -1 -8 -36 -22 -77 -35 -102 -43 -181 -21
-214 9 -14 28 -31 41 -37 33 -15 101 19 154 77 l41 45 0 -41 c0 -29 7 -47 25
-64 38 -39 80 -29 158 36 l47 40 0 -30 c0 -32 30 -71 53 -71 27 1 98 41 141
80 42 39 131 149 171 213 17 26 17 27 -1 27 -11 0 -33 -21 -54 -52 -70 -103
-170 -183 -170 -135 0 7 59 116 131 241 72 125 129 229 127 231 -2 2 -27 5
-56 6 -37 2 -56 -1 -62 -11 -6 -10 -13 -9 -35 9 -15 11 -39 21 -52 21 -77 0
-207 -122 -335 -317 -48 -72 -103 -148 -122 -168 -68 -72 -95 -21 -56 108 32
106 53 139 114 185 129 98 284 253 393 395 36 46 41 57 26 57 -11 0 -48 -36
-93 -91 -107 -130 -340 -350 -340 -321 0 10 73 145 117 215 139 224 275 392
387 475 57 43 73 15 37 -64 -19 -41 -19 -42 0 -37 26 7 51 68 47 118 -3 38 -5
40 -38 43 -20 1 -51 -6 -73 -17z m-729 -643 c20 -20 14 -83 -13 -144 l-25 -56
-27 18 c-41 26 -52 45 -53 88 0 32 6 45 36 72 37 36 62 42 82 22z m710 -21
c-7 -37 -177 -322 -225 -376 -45 -52 -78 -65 -90 -35 -19 50 116 283 220 382
61 57 103 70 95 29z m-803 -187 l35 -21 -19 -38 c-44 -85 -138 -181 -178 -181
-27 0 -45 32 -38 69 9 47 55 145 96 200 l32 45 19 -27 c10 -14 34 -35 53 -47z"/>
<path d="M3855 1209 c-115 -96 -238 -149 -344 -149 -59 0 -60 -1 -100 -47 -23
-27 -41 -51 -41 -55 0 -5 33 -8 73 -8 167 0 335 103 456 278 12 17 21 32 19
31 -2 0 -30 -23 -63 -50z"/>
<path d="M750 943 c-105 -52 -244 -214 -299 -348 -29 -71 -38 -177 -19 -215
22 -40 75 -48 134 -19 67 32 179 147 238 244 27 44 50 81 50 81 1 1 16 5 33 9
l33 7 -37 -77 c-125 -263 52 -384 266 -180 32 30 60 55 63 55 2 0 0 -22 -6
-49 -8 -41 -7 -53 7 -75 34 -51 105 -41 174 25 18 16 34 29 37 29 4 0 6 -13 6
-29 0 -32 22 -61 48 -61 58 0 173 96 275 231 44 58 53 75 40 78 -10 2 -29 -12
-47 -35 -41 -54 -143 -154 -156 -154 -32 0 -12 48 109 255 72 124 131 227 131
230 0 3 -27 5 -60 5 -36 0 -60 -4 -60 -11 0 -6 -12 -1 -26 10 -33 26 -57 26
-109 2 -62 -28 -148 -113 -242 -240 -96 -128 -203 -245 -245 -267 -42 -22 -75
-18 -94 11 -22 34 -14 78 31 173 73 154 190 286 249 280 43 -4 41 -33 -3 -56
-43 -21 -67 -70 -47 -97 30 -42 104 35 113 119 5 38 2 48 -20 70 -55 54 -136
25 -262 -93 -76 -72 -160 -130 -171 -118 -3 2 0 17 6 32 24 62 31 117 20 151
-21 61 -74 70 -160 27z m116 -48 c17 -26 14 -59 -13 -127 -18 -45 -39 -48 -82
-12 -21 18 -31 35 -31 54 0 42 59 106 102 109 4 1 15 -10 24 -24z m809 5 c10
-15 -174 -326 -229 -387 -88 -98 -121 -49 -56 84 37 74 164 248 211 287 31 27
63 34 74 16z m-892 -195 c15 -4 27 -11 27 -17 0 -16 -68 -117 -110 -162 -49
-53 -93 -74 -115 -56 -35 29 -3 137 76 259 l32 49 32 -33 c17 -19 43 -37 58
-40z"/>
<path d="M1899 903 l-30 -48 52 -3 c57 -3 62 0 98 61 l23 37 -56 0 c-56 0 -56
0 -87 -47z"/>
</g>
</svg>
