<?xml version="1.0" standalone="no"?>
<!DOCTYPE svg PUBLIC "-//W3C//DTD SVG 20010904//EN"
 "http://www.w3.org/TR/2001/REC-SVG-20010904/DTD/svg10.dtd">
<svg version="1.0" xmlns="http://www.w3.org/2000/svg"
 width="500.000000pt" height="500.000000pt" viewBox="0 0 500.000000 500.000000"
 preserveAspectRatio="xMidYMid meet">

<g transform="translate(0.000000,500.000000) scale(0.100000,-0.100000)"
fill="#000000" stroke="none">
<path d="M1615 3894 c-111 -33 -243 -78 -290 -99 -27 -12 -114 -48 -192 -80
-166 -67 -182 -80 -162 -127 23 -59 100 -157 196 -252 l94 -92 -143 -18 c-546
-65 -658 -83 -658 -102 0 -15 48 -356 85 -609 14 -93 30 -201 35 -240 5 -38
19 -135 30 -215 12 -80 30 -203 40 -274 11 -71 23 -132 27 -136 4 -4 98 -44
208 -89 110 -45 209 -87 220 -93 21 -12 345 -145 655 -269 96 -39 189 -77 205
-84 43 -20 268 -112 348 -142 l67 -26 113 18 c272 42 622 148 687 208 14 12
90 73 170 135 146 113 403 315 684 537 206 163 224 177 255 200 15 11 41 32
58 46 l31 26 -64 228 c-35 126 -79 281 -98 344 -19 64 -49 169 -67 235 l-33
118 -107 -7 c-74 -4 -109 -3 -114 4 -3 6 -15 80 -26 163 -11 83 -21 153 -23
155 -1 2 -81 -1 -177 -7 -221 -12 -593 -30 -641 -30 -35 0 -37 2 -45 43 -6 28
-14 41 -24 40 -7 -1 -107 -16 -221 -32 -257 -38 -253 -38 -266 -3 -14 40 -134
214 -209 303 -87 104 -165 156 -307 206 -90 32 -263 41 -341 17z m270 -89
c107 -28 239 -121 328 -230 52 -64 127 -204 171 -320 14 -38 62 -142 106 -229
47 -95 76 -164 71 -169 -11 -11 -59 58 -100 145 -36 76 -124 173 -167 184 -15
4 -53 2 -84 -5 -174 -39 -222 -44 -380 -45 -186 -1 -171 -5 -320 92 -100 66
-238 182 -334 282 -81 83 -83 77 49 137 50 23 122 56 160 74 176 82 233 98
340 99 60 0 125 -6 160 -15z m1846 -556 c9 -16 39 -220 39 -260 0 -33 -14 -39
-98 -39 -37 0 -83 -3 -103 -6 l-36 -6 4 -77 c2 -42 8 -150 13 -241 5 -91 13
-265 16 -387 l7 -221 -44 -6 c-229 -27 -260 -29 -274 -15 -14 14 -35 219 -55
524 -5 77 -14 199 -21 272 l-12 132 -91 3 -91 3 -17 100 c-21 122 -22 184 -5
190 6 2 138 11 292 20 154 10 316 20 360 24 99 8 107 8 116 -10z m-857 -6 c7
-27 42 -289 71 -543 15 -124 35 -297 46 -385 32 -273 42 -366 37 -370 -3 -3
-42 -12 -87 -22 l-82 -16 -25 24 c-26 23 -314 352 -384 437 -50 61 -62 56 -55
-20 10 -97 33 -294 45 -387 6 -48 7 -88 2 -93 -6 -6 -221 -37 -263 -38 -10 0
-26 102 -49 310 -11 102 -29 250 -40 330 -34 241 -56 450 -51 459 10 14 242
39 277 29 22 -6 80 -58 189 -169 153 -157 157 -160 151 -122 -3 21 -12 92 -21
158 -9 66 -25 180 -35 254 -11 74 -17 137 -14 140 7 8 197 38 246 40 27 1 38
-4 42 -16z m-1629 -125 c5 -27 24 -151 32 -220 4 -35 2 -49 -8 -53 -20 -7
-234 -45 -292 -52 l-49 -6 6 -51 c3 -28 8 -84 12 -124 4 -40 10 -75 15 -78 4
-2 67 3 138 11 72 9 135 14 139 11 11 -7 47 -215 38 -223 -3 -4 -61 -12 -129
-20 -168 -18 -170 -18 -163 -51 3 -15 10 -92 16 -172 6 -80 15 -192 20 -250 5
-57 7 -106 5 -108 -11 -11 -248 -31 -263 -23 -13 7 -21 32 -30 98 -7 48 -28
207 -47 353 -20 146 -51 375 -70 510 -51 365 -51 366 -29 377 20 10 145 30
434 68 227 30 219 30 225 3z m460 -145 c33 -85 115 -318 351 -1007 32 -94 41
-136 29 -136 -3 0 -51 -7 -107 -15 -56 -9 -107 -14 -114 -11 -6 2 -24 37 -39
78 -66 177 -89 228 -104 227 -9 0 -45 -6 -81 -13 -75 -14 -68 -1 -100 -186
-12 -69 -24 -128 -28 -132 -12 -12 -162 -30 -188 -24 -14 4 -24 14 -24 24 0
22 23 255 56 577 30 291 41 410 50 517 4 42 10 82 15 89 7 13 102 24 220 27
46 2 58 -1 64 -15z m2377 -238 c31 -93 82 -255 113 -360 31 -104 61 -203 65
-218 11 -34 -4 -42 -103 -52 l-66 -7 -43 86 c-46 93 -42 91 -128 78 l-45 -7
-10 -100 -10 -99 -93 -15 c-50 -8 -94 -12 -96 -10 -3 2 -6 189 -8 414 l-3 410
165 26 c91 15 174 26 185 25 17 -1 29 -29 77 -171z"/>
<path d="M1390 3519 c-30 -5 -59 -11 -65 -12 -5 -2 36 -30 90 -62 55 -32 133
-82 175 -110 115 -80 156 -98 235 -103 68 -4 289 28 322 47 10 5 -21 17 -89
35 -147 40 -227 70 -358 136 -161 82 -190 88 -310 69z"/>
<path d="M1595 2501 c-9 -15 -37 -193 -31 -199 7 -7 136 8 136 16 0 4 -15 47
-33 97 -31 85 -54 114 -72 86z"/>
<path d="M3940 2520 c-14 -4 -44 -8 -67 -9 -49 -1 -55 -16 -20 -48 33 -30 62
-36 95 -19 31 16 42 34 42 67 0 20 -10 22 -50 9z"/>
<path d="M4420 2250 c-24 -24 -26 -76 -4 -105 20 -27 90 -27 110 0 36 49 3
125 -56 125 -17 0 -39 -9 -50 -20z m90 -10 c41 -41 16 -103 -40 -103 -37 0
-60 23 -60 60 0 28 33 63 60 63 11 0 29 -9 40 -20z"/>
<path d="M4440 2200 c0 -22 5 -40 10 -40 6 0 10 5 10 12 0 9 3 9 12 0 20 -20
33 -14 33 16 0 37 -12 52 -41 52 -21 0 -24 -4 -24 -40z m40 10 c0 -5 -5 -10
-11 -10 -5 0 -7 5 -4 10 3 6 8 10 11 10 2 0 4 -4 4 -10z"/>
</g>
</svg>
