<?xml version="1.0" standalone="no"?>
<!DOCTYPE svg PUBLIC "-//W3C//DTD SVG 20010904//EN"
 "http://www.w3.org/TR/2001/REC-SVG-20010904/DTD/svg10.dtd">
<svg version="1.0" xmlns="http://www.w3.org/2000/svg"
 width="271.000000pt" height="186.000000pt" viewBox="0 0 271.000000 186.000000"
 preserveAspectRatio="xMidYMid meet">
<metadata>
Created by potrace 1.16, written by Peter Selinger 2001-2019
</metadata>
<g transform="translate(0.000000,186.000000) scale(0.100000,-0.100000)"
fill="#000000" stroke="none">
<path d="M1645 1819 c-474 -36 -832 -137 -1275 -359 -146 -73 -292 -157 -306
-176 -19 -24 -37 -200 -37 -364 0 -238 29 -369 124 -568 38 -80 137 -245 189
-314 3 -4 69 21 145 56 503 229 923 354 1405 420 243 33 258 34 515 41 121 4
225 8 231 10 32 10 57 454 35 619 -14 103 -51 226 -93 311 -35 70 -131 210
-187 275 l-39 45 -89 7 c-116 8 -492 7 -618 -3z m380 -277 c184 -41 323 -105
418 -192 69 -63 84 -97 68 -151 -48 -160 -412 -330 -1056 -494 -525 -133 -826
-171 -1052 -132 -43 8 -69 9 -66 3 9 -13 -26 1 -64 27 -50 34 -77 91 -77 163
0 93 45 176 153 285 136 136 315 245 581 352 208 85 344 122 550 152 136 20
426 13 545 -13z"/>
<path d="M1774 1441 c-52 -24 -74 -55 -74 -106 0 -49 29 -99 70 -120 16 -8 80
-22 141 -30 123 -16 129 -18 129 -45 0 -38 -85 -42 -120 -5 -20 21 -29 23 -69
18 -97 -13 -115 -37 -63 -86 45 -43 98 -60 187 -60 95 0 183 29 216 71 26 34
21 80 -16 128 -37 48 -89 71 -202 89 -121 19 -133 23 -133 40 0 30 57 33 94 4
22 -17 36 -20 73 -16 25 2 52 12 61 21 15 14 14 18 -9 42 -63 69 -198 95 -285
55z"/>
<path d="M1508 1392 c-18 -10 -28 -25 -28 -40 0 -14 28 -112 62 -218 l62 -194
35 6 c73 13 106 28 109 50 4 26 -132 394 -150 405 -21 14 -61 10 -90 -9z"/>
<path d="M1255 1345 c-5 -2 -53 -15 -105 -30 -105 -29 -130 -45 -130 -84 1
-32 74 -419 81 -426 8 -8 126 35 139 50 8 10 7 31 -5 81 -18 77 -16 79 53 90
51 8 67 -4 83 -57 7 -21 21 -46 31 -56 17 -15 24 -16 76 -2 50 12 57 17 60 41
5 43 -43 132 -83 154 -31 17 -33 20 -19 35 43 47 19 143 -45 186 -31 21 -100
30 -136 18z"/>
<path d="M868 1233 c-9 -10 -38 -63 -65 -117 l-50 -100 -7 81 -7 82 -71 -34
c-39 -19 -73 -36 -76 -39 -8 -9 20 -486 29 -492 12 -7 112 41 133 64 16 19 18
33 14 107 -3 47 -2 85 2 85 5 0 32 -22 62 -48 64 -59 87 -72 128 -72 37 0 90
47 90 80 0 22 -32 58 -109 120 l-44 35 47 92 c25 51 46 101 46 111 0 49 -89
82 -122 45z"/>
</g>
</svg>
