<?xml version="1.0" standalone="no"?>
<!DOCTYPE svg PUBLIC "-//W3C//DTD SVG 20010904//EN"
 "http://www.w3.org/TR/2001/REC-SVG-20010904/DTD/svg10.dtd">
<svg version="1.0" xmlns="http://www.w3.org/2000/svg"
 width="666.000000pt" height="375.000000pt" viewBox="0 0 666.000000 375.000000"
 preserveAspectRatio="xMidYMid meet">
<metadata>
Created by potrace 1.16, written by Peter Selinger 2001-2019
</metadata>
<g transform="translate(0.000000,375.000000) scale(0.100000,-0.100000)"
fill="#000000" stroke="none">
<path d="M3135 3530 c-22 -4 -74 -13 -115 -19 -84 -13 -252 -64 -345 -105
-303 -135 -547 -336 -716 -591 -69 -104 -141 -232 -154 -275 -4 -14 -16 -43
-25 -65 -17 -37 -31 -77 -58 -165 -6 -19 -12 -50 -14 -67 -1 -18 -5 -33 -9
-33 -4 0 -9 -26 -13 -57 -3 -32 -9 -85 -12 -118 -17 -154 -6 -352 30 -530 12
-56 46 -170 70 -230 48 -118 184 -362 209 -373 4 -2 7 -8 7 -13 0 -18 127
-163 201 -231 81 -72 188 -158 199 -158 4 0 23 -13 43 -28 51 -41 320 -172
352 -172 9 0 23 -4 33 -9 45 -24 152 -48 302 -69 93 -13 337 -15 417 -2 152
23 203 35 315 71 417 135 768 437 972 835 25 50 46 94 46 98 0 5 6 22 14 39
37 86 70 205 96 351 31 173 13 584 -29 665 -5 9 -14 41 -21 71 -7 30 -25 83
-41 118 -15 34 -26 62 -24 62 6 0 -85 176 -116 223 -194 303 -457 528 -774
661 -22 10 -49 21 -60 26 -24 11 -194 63 -215 66 -8 1 -37 5 -65 9 -27 3 -74
11 -104 16 -64 11 -338 10 -396 -1z m555 -105 c52 -15 111 -31 130 -36 62 -15
233 -94 335 -154 195 -116 421 -341 531 -528 52 -88 114 -207 114 -220 0 -4
10 -29 21 -55 12 -26 23 -54 24 -62 1 -8 4 -22 8 -30 5 -13 15 -51 43 -175 12
-53 27 -219 27 -300 -1 -79 -14 -223 -27 -280 -17 -76 -39 -163 -46 -180 -5
-11 -14 -39 -20 -63 -12 -48 -156 -335 -170 -340 -6 -2 -10 -8 -10 -14 0 -33
-215 -267 -335 -364 -230 -187 -569 -319 -855 -335 -191 -10 -369 3 -490 37
-52 14 -113 30 -135 36 -21 5 -44 13 -50 17 -5 4 -26 14 -45 21 -96 36 -276
137 -365 204 -62 47 -277 265 -321 326 -309 425 -390 969 -218 1470 95 277
254 502 512 723 84 72 210 143 437 247 30 14 253 72 310 80 28 4 151 7 275 5
210 -3 231 -5 320 -30z"/>
<path d="M3195 3359 c-156 -15 -334 -64 -496 -137 -154 -69 -353 -218 -462
-345 -28 -33 -64 -74 -79 -89 -15 -16 -44 -57 -64 -91 -21 -34 -47 -78 -59
-97 -23 -36 -67 -132 -63 -135 2 0 23 -9 48 -19 25 -10 54 -22 65 -27 11 -4
34 -10 50 -12 17 -3 77 -15 135 -27 150 -32 452 -33 660 -1 80 12 152 24 160
26 8 3 38 7 65 10 28 2 86 12 130 21 143 29 179 35 220 39 22 2 94 13 160 25
370 63 686 52 1008 -35 l28 -7 -16 38 c-9 22 -19 46 -23 54 -3 8 -13 26 -22
40 -10 14 -29 46 -43 72 -14 25 -32 54 -41 65 -8 10 -42 53 -76 96 -162 204
-401 367 -690 471 -142 51 -423 82 -595 65z"/>
<path d="M4050 2199 c-123 -12 -201 -79 -208 -178 -9 -120 52 -176 241 -222
60 -15 114 -32 119 -37 20 -20 0 -41 -45 -47 -55 -8 -117 8 -156 41 l-30 25
-68 -25 c-37 -13 -76 -27 -85 -31 -26 -11 -22 -49 10 -80 15 -15 56 -42 92
-59 59 -28 75 -31 186 -34 106 -4 129 -1 181 18 96 35 153 106 153 191 0 27
-34 96 -59 119 -31 29 -106 59 -202 81 -109 24 -124 31 -116 52 15 41 142 24
166 -22 11 -20 11 -20 57 -1 25 11 52 20 61 20 8 0 28 8 44 17 23 14 27 22 22
42 -11 47 -35 71 -98 101 -66 32 -150 41 -265 29z"/>
<path d="M1959 2189 c-5 -3 -8 -132 -7 -310 l3 -304 113 -3 112 -3 0 59 0 58
93 34 c250 92 288 134 275 295 -7 88 -69 149 -173 170 -45 10 -402 13 -416 4z
m335 -179 c20 -7 26 -16 26 -40 0 -37 -32 -67 -95 -91 l-45 -17 0 79 0 79 44
0 c25 0 56 -4 70 -10z"/>
<path d="M2606 2188 c-3 -7 -6 -149 -8 -316 l-3 -302 275 2 c314 3 287 -7 275
104 l-7 64 -159 0 -159 0 0 30 0 29 128 3 127 3 3 78 3 77 -131 0 -130 0 0 30
0 30 161 2 161 3 1 78 c1 43 -2 82 -8 86 -5 5 -126 9 -268 10 -205 2 -258 0
-261 -11z"/>
<path d="M3233 2193 c-10 -4 -13 -76 -13 -314 l0 -309 110 0 110 0 0 55 c0 64
-7 58 144 114 122 45 184 89 216 156 37 76 19 177 -42 231 -40 37 -82 53 -169
64 -84 10 -333 13 -356 3z m320 -182 c71 -27 14 -122 -83 -137 l-30 -5 0 75 0
76 44 0 c25 0 56 -4 69 -9z"/>
<path d="M4670 2193 c-8 -3 -32 -14 -53 -24 -21 -10 -52 -21 -70 -25 -71 -15
-67 1 -67 -301 l0 -273 115 0 115 0 -2 312 c-2 197 -7 312 -13 314 -5 1 -17 0
-25 -3z"/>
<path d="M3850 1387 c-3 -3 -27 -8 -55 -11 -27 -3 -79 -10 -115 -16 -36 -6
-83 -13 -105 -15 -45 -4 -140 -20 -230 -40 -33 -8 -82 -16 -110 -20 -65 -9
-78 -11 -150 -23 -242 -43 -292 -47 -545 -46 -223 0 -268 3 -358 22 -57 12
-111 26 -120 31 -22 11 -92 24 -92 16 0 -11 61 -139 69 -145 5 -3 17 -23 29
-45 36 -71 113 -168 216 -270 95 -95 213 -195 230 -195 4 0 26 -13 49 -28 69
-47 203 -109 327 -152 14 -5 79 -21 145 -35 103 -23 144 -27 290 -28 149 0
186 3 300 27 72 16 158 39 193 53 35 14 69 26 75 27 46 9 300 154 349 199 13
12 53 47 88 77 125 108 303 348 353 476 l16 41 -77 26 c-42 15 -93 29 -112 32
-19 3 -60 13 -90 22 -41 12 -118 17 -310 20 -140 3 -257 3 -260 0z"/>
</g>
</svg>
