<?xml version="1.0" encoding="UTF-8"?>
<svg version="1.1" xmlns="http://www.w3.org/2000/svg" width="225" height="225">
<path d="M0 0 C1.19104843 0.00273422 1.19104843 0.00273422 2.40615845 0.00552368 C13.94767775 0.05014727 25.01450874 0.45465197 36.25 3.3125 C36.94464355 3.47878906 37.63928711 3.64507812 38.35498047 3.81640625 C59.50417085 8.95039717 81.09648155 19.66782014 92.83984375 38.6015625 C97.14544604 46.87881455 97.6991507 56.16184335 95.5625 65.23046875 C93.42900445 70.96423803 90.23079311 75.70214107 86.25 80.3125 C85.77175781 80.88484375 85.29351562 81.4571875 84.80078125 82.046875 C66.31898596 102.34426227 34.60850932 108.93940651 8.38427734 110.48095703 C-22.63185906 111.74100405 -55.08005804 106.2834054 -79.75 86.3125 C-80.58917969 85.67699219 -81.42835937 85.04148437 -82.29296875 84.38671875 C-91.37520369 76.71952201 -95.80908322 66.24308427 -97.1875 54.625 C-95.43703825 41.37150391 -88.98517346 30.82125866 -78.75 22.3125 C-67.22595883 14.01023378 -54.23771296 8.3741065 -40.625 4.5 C-39.94606689 4.30510986 -39.26713379 4.11021973 -38.56762695 3.90942383 C-25.84684829 0.51412365 -13.07750371 -0.06235599 0 0 Z M-71.75 31.3125 C-78.21883643 40.18981159 -81.79282894 49.28680672 -80.3515625 60.37890625 C-78.04052417 71.0232769 -72.27369465 79.54200676 -63.75 86.3125 C-41.54790024 99.80730727 -17.26098987 94.40887927 6.65600586 89.15869141 C31.42876149 83.7851898 31.42876149 83.7851898 41.25 89.3125 C41.25 92.2825 41.25 95.2525 41.25 98.3125 C55.23909429 94.41389995 68.41896513 85.12130205 76.06640625 72.62109375 C80.30899134 64.34595254 81.75981306 55.55647267 79.55859375 46.453125 C77.48643745 40.17596533 74.61962144 35.24182576 70.25 30.3125 C69.62480469 29.58289063 68.99960938 28.85328125 68.35546875 28.1015625 C52.91599408 11.31578855 28.00505947 4.98070908 5.89453125 4.03125 C-22.40136139 3.31707172 -52.09967886 9.51245189 -71.75 31.3125 Z " fill="#DC0812" transform="translate(112.75,59.6875)"/>
<path d="M0 0 C0 2.64 0 5.28 0 8 C-2.15503279 7.53820726 -3.85507072 7.08799278 -5.75 5.9375 C-9.18266365 4.50722348 -12.30017984 4.87667266 -16 5 C-16.87436418 6.73575649 -16.87436418 6.73575649 -17 9 C-14.27924647 13.79370861 -9.7701657 16.34498257 -5.2421875 19.25390625 C-2.89381037 21.08269471 -1.99738664 22.23008385 -1 25 C-0.53720847 29.16512377 -0.71021313 31.4315719 -2.625 35.1875 C-7.44677742 40.89749957 -12.96028399 43.52984646 -20.38671875 44.22265625 C-26.30084734 44.43096399 -30.60478911 43.39787151 -36 41 C-35.67 37.7 -35.34 34.4 -35 31 C-33.80375 31.804375 -32.6075 32.60875 -31.375 33.4375 C-27.91606579 35.59244663 -25.16234877 36.90320119 -21 37 C-20.01 36.34 -19.02 35.68 -18 35 C-18.08954661 32.63196966 -18.08954661 32.63196966 -19 30 C-21.40539188 27.83916491 -21.40539188 27.83916491 -24.375 26 C-29.03603779 22.95003332 -32.22533592 20.39891369 -33.50390625 14.7890625 C-33.62054531 10.48119317 -33.21850251 7.6073144 -30.5625 4.125 C-22.4566419 -3.962051 -10.35821078 -2.96679617 0 0 Z " fill="#D70A13" transform="translate(78,87)"/>
<path d="M0 0 C-0.50603992 2.16874252 -0.99983813 3.99967627 -2 6 C-3.4540625 6.1546875 -3.4540625 6.1546875 -4.9375 6.3125 C-6.4534375 6.6528125 -6.4534375 6.6528125 -8 7 C-9.45291273 9.46255685 -9.45291273 9.46255685 -10 12 C-8.68 12.33 -7.36 12.66 -6 13 C-6.33 14.65 -6.66 16.3 -7 18 C-8.32 18.33 -9.64 18.66 -11 19 C-11.10489746 19.88353149 -11.10489746 19.88353149 -11.21191406 20.78491211 C-11.54329886 23.50445178 -11.89651253 26.22074835 -12.25 28.9375 C-12.41435547 30.32678711 -12.41435547 30.32678711 -12.58203125 31.74414062 C-13.7545024 40.53767422 -15.96194722 48.16356599 -23 54 C-27.22885359 57.20021353 -30.83888828 57.56261765 -36 58 C-35.68546875 57.3915625 -35.3709375 56.783125 -35.046875 56.15625 C-29.32203621 44.43067657 -26.84973986 31.85082427 -25 19 C-26.32 19 -27.64 19 -29 19 C-28.75 16.125 -28.75 16.125 -28 13 C-27.360625 12.68546875 -26.72125 12.3709375 -26.0625 12.046875 C-23.48531287 10.73875729 -23.233281 9.78387209 -22.25 7.125 C-20.34942221 3.07338067 -18.39354214 1.36129524 -14.296875 -0.38671875 C-9.7720465 -1.59487874 -4.27944307 -2.13972154 0 0 Z " fill="#DA0912" transform="translate(144,86)"/>
<path d="M0 0 C1.30926201 9.67493615 -1.118547 19.54793849 -3 29 C-7.62 29 -12.24 29 -17 29 C-17 28.34 -17 27.68 -17 27 C-17.680625 27.33 -18.36125 27.66 -19.0625 28 C-22.60355647 29.20546603 -25.27916967 29.3382573 -29 29 C-31.89854954 27.55072523 -32.74959072 26.63437018 -33.9375 23.625 C-34.02238706 20.05974348 -33.1944615 18.82206041 -31 16 C-27.75486847 14.00313808 -24.22122491 12.60331287 -20.71679688 11.12695312 C-16.09736682 9.05811493 -16.09736682 9.05811493 -13.50390625 4.74609375 C-13.33761719 3.83988281 -13.17132813 2.93367188 -13 2 C-13.99 2 -14.98 2 -16 2 C-16.433125 2.928125 -16.433125 2.928125 -16.875 3.875 C-18 6 -18 6 -20 8 C-25.33333333 8.33333333 -25.33333333 8.33333333 -28 7 C-27.9375 3.6875 -27.9375 3.6875 -27 0 C-19.76973756 -4.51891403 -6.58428262 -6.58428262 0 0 Z M-18.625 16.25 C-19.40875 17.1575 -20.1925 18.065 -21 19 C-20.95502158 21.27523089 -20.95502158 21.27523089 -20 23 C-17.93597032 22.51294288 -17.93597032 22.51294288 -16 21 C-15.18129815 17.43793339 -15.18129815 17.43793339 -15 14 C-16.44967876 13.89153477 -16.44967876 13.89153477 -18.625 16.25 Z " fill="#DC080E" transform="translate(186,102)"/>
<path d="M0 0 C4.74562888 4.15242527 4.74562888 4.15242527 5.3203125 7.76171875 C5.6002339 13.25750887 4.55422613 17.44334717 1 21.75 C-4.50829375 27.39628858 -8.92511316 30.75203494 -16.9375 31.0625 C-21.32057349 30.95814111 -24.34249099 30.33701857 -28 27.75 C-30.25937139 25.34486271 -30.96147398 23.70993999 -31.09375 20.4140625 C-30.64298358 12.90880167 -28.10933185 8.52719401 -22.5625 3.5 C-16.27685106 -1.92520047 -7.68183041 -3.20076267 0 0 Z M-13.625 6.25 C-16.9149899 12.23179981 -17.23777003 18.09243904 -17 24.75 C-16.01 25.08 -15.02 25.41 -14 25.75 C-9.71315772 22.14761153 -9.05889686 17.03713086 -8 11.75 C-7.80160929 9.34037948 -7.83873476 7.16897854 -8 4.75 C-11.87871033 4.29781326 -11.87871033 4.29781326 -13.625 6.25 Z " fill="#DF0711" transform="translate(109,100.25)"/>
<path d="M0 0 C4.62 0 9.24 0 14 0 C13.198513 10.73992581 11.57205861 21.35152755 10 32 C5.05 32 0.1 32 -5 32 C-4.731875 30.618125 -4.46375 29.23625 -4.1875 27.8125 C-2.50055714 18.58892751 -1.29319701 9.2851545 0 0 Z " fill="#D50B13" transform="translate(141,99)"/>
<path d="M0 0 C0 3 0 3 -2.5 5.5625 C-3.325 6.366875 -4.15 7.17125 -5 8 C-5 8.66 -5 9.32 -5 10 C-3.02 10.66 -1.04 11.32 1 12 C1 11.34 1 10.68 1 10 C1.99 10 2.98 10 4 10 C4 9.34 4 8.68 4 8 C4.99 8.33 5.98 8.66 7 9 C-5.15660859 18.61424093 -24.15691408 28 -40 28 C-40 27.34 -40 26.68 -40 26 C-37.69 26 -35.38 26 -33 26 C-33 25.34 -33 24.68 -33 24 C-31.68 24 -30.36 24 -29 24 C-29 23.34 -29 22.68 -29 22 C-29.66 22 -30.32 22 -31 22 C-30.67 18.04 -30.34 14.08 -30 10 C-30.99 10 -31.98 10 -33 10 C-33 9.34 -33 8.68 -33 8 C-40.26 8 -47.52 8 -55 8 C-55 7.67 -55 7.34 -55 7 C-50.63332503 6.17459193 -46.44311059 5.80846198 -42 5.75 C-40.2365625 5.71132812 -40.2365625 5.71132812 -38.4375 5.671875 C-34.48228726 6.04941803 -30.89010204 7.10989796 -28 10 C-27.85884839 12.67058851 -27.95752893 15.32432238 -28 18 C-17.24743476 13.58469543 -8.43354605 8.02612837 0 0 Z " fill="#CE0B12" transform="translate(183,139)"/>
<path d="M0 0 C1.51171875 1.1875 1.51171875 1.1875 3 3 C3.14453125 5.375 3.14453125 5.375 2.8125 8 C2.71582031 8.86625 2.61914062 9.7325 2.51953125 10.625 C2 13 2 13 0 16 C-0.45601261 18.50896686 -0.45601261 18.50896686 -0.625 21.1875 C-0.69976562 22.08855469 -0.77453125 22.98960938 -0.8515625 23.91796875 C-0.90054688 24.60503906 -0.94953125 25.29210937 -1 26 C-3.95887459 26.08069658 -6.9155659 26.14034665 -9.875 26.1875 C-10.71675781 26.21263672 -11.55851563 26.23777344 -12.42578125 26.26367188 C-13.23144531 26.27333984 -14.03710938 26.28300781 -14.8671875 26.29296875 C-15.98262939 26.31653442 -15.98262939 26.31653442 -17.12060547 26.34057617 C-17.74080566 26.22818604 -18.36100586 26.1157959 -19 26 C-19.66 25.01 -20.32 24.02 -21 23 C-17.72921858 22.03087958 -15.60964568 22 -12 22 C-11.01 18.7 -10.02 15.4 -9 12 C-8.67 12 -8.34 12 -8 12 C-8 13.65 -8 15.3 -8 17 C-7.34 17 -6.68 17 -6 17 C-6.391875 15.741875 -6.78375 14.48375 -7.1875 13.1875 C-7.74609375 10.98046875 -7.74609375 10.98046875 -8 9 C-6.75 7 -6.75 7 -5 6 C-4.34 6 -3.68 6 -3 6 C-3 6.99 -3 7.98 -3 9 C-2.01 9 -1.02 9 0 9 C-0.66 6.69 -1.32 4.38 -2 2 C-1.34 1.34 -0.68 0.68 0 0 Z " fill="#E30612" transform="translate(182,103)"/>
<path d="M0 0 C47.98829641 -0.75672956 47.98829641 -0.75672956 58 5 C55.69 5 53.38 5 51 5 C51 5.66 51 6.32 51 7 C51.9590625 7.185625 51.9590625 7.185625 52.9375 7.375 C53.9584375 7.684375 53.9584375 7.684375 55 8 C55.495 8.99 55.495 8.99 56 10 C54.88367188 9.73445313 53.76734375 9.46890625 52.6171875 9.1953125 C40.13104181 6.33933106 27.76841618 4.8927186 15 4 C15 3.67 15 3.34 15 3 C20.94 3 26.88 3 33 3 C33 2.34 33 1.68 33 1 C22.11 1 11.22 1 0 1 C0 0.67 0 0.34 0 0 Z " fill="#BE1316" transform="translate(95,60)"/>
<path d="M0 0 C1.30926201 9.67493615 -1.118547 19.54793849 -3 29 C-7.62 29 -12.24 29 -17 29 C-17 28.34 -17 27.68 -17 27 C-13.04 27 -9.08 27 -5 27 C-5.04125 25.411875 -5.0825 23.82375 -5.125 22.1875 C-5.22481553 18.3446021 -5.20914 17.31371 -3 14 C-1.76181456 9.66635095 -1.85098996 5.47030112 -2 1 C-3.92135549 -0.92135549 -6.738404 -0.13255801 -9.29101562 -0.13671875 C-10.53915039 -0.13091797 -10.53915039 -0.13091797 -11.8125 -0.125 C-12.63298828 -0.12886719 -13.45347656 -0.13273437 -14.29882812 -0.13671875 C-15.09353516 -0.13542969 -15.88824219 -0.13414063 -16.70703125 -0.1328125 C-17.4338208 -0.13168457 -18.16061035 -0.13055664 -18.90942383 -0.12939453 C-21.04928275 0.00305032 -22.94147724 0.41549911 -25 1 C-25.33 2.98 -25.66 4.96 -26 7 C-26.66 7 -27.32 7 -28 7 C-27.9375 3.6875 -27.9375 3.6875 -27 0 C-19.76973756 -4.51891403 -6.58428262 -6.58428262 0 0 Z " fill="#BD1417" transform="translate(186,102)"/>
<path d="M0 0 C1.7634375 -0.03867188 1.7634375 -0.03867188 3.5625 -0.078125 C7.51771274 0.29941803 11.10989796 1.35989796 14 4.25 C14.14115161 6.92058851 14.04247107 9.57432238 14 12.25 C14.99 12.25 15.98 12.25 17 12.25 C17.33 13.24 17.66 14.23 18 15.25 C20.475 15.745 20.475 15.745 23 16.25 C19.62473371 18.50017753 16.36925005 19.38004999 12.5 20.375 C11.82324219 20.55675781 11.14648438 20.73851562 10.44921875 20.92578125 C7.54810937 21.68682178 5.0122546 22.25 2 22.25 C2 21.59 2 20.93 2 20.25 C4.31 20.25 6.62 20.25 9 20.25 C9 19.59 9 18.93 9 18.25 C10.32 18.25 11.64 18.25 13 18.25 C13 17.59 13 16.93 13 16.25 C12.34 16.25 11.68 16.25 11 16.25 C11.33 12.29 11.66 8.33 12 4.25 C11.01 4.25 10.02 4.25 9 4.25 C9 3.59 9 2.93 9 2.25 C1.74 2.25 -5.52 2.25 -13 2.25 C-13 1.92 -13 1.59 -13 1.25 C-8.63332503 0.42459193 -4.44311059 0.05846198 0 0 Z " fill="#C21217" transform="translate(141,144.75)"/>
<path d="M0 0 C0.66 0 1.32 0 2 0 C1.67 4.29 1.34 8.58 1 13 C2.32 12.67 3.64 12.34 5 12 C7.02800831 8.09420622 8.34108329 4.34885027 9 0 C9.33 0 9.66 0 10 0 C10.33 2.31 10.66 4.62 11 7 C11.99 7.33 12.98 7.66 14 8 C14.33 8.66 14.66 9.32 15 10 C15.33 9.34 15.66 8.68 16 8 C16.66 8 17.32 8 18 8 C18 7.01 18 6.02 18 5 C18.99 5.33 19.98 5.66 21 6 C18.64338778 10.71322444 15.27928084 13.99934765 11 17 C10.34 17 9.68 17 9 17 C9 15.68 9 14.36 9 13 C8.01 13 7.02 13 6 13 C6 13.66 6 14.32 6 15 C3.69 15 1.38 15 -1 15 C-0.67 10.05 -0.34 5.1 0 0 Z " fill="#CA0D12" transform="translate(91,112)"/>
<path d="M0 0 C0.33 1.65 0.66 3.3 1 5 C-4.78135613 10.2557783 -10.31740872 11.31357515 -18 11 C-8.63507463 -0.82238806 -8.63507463 -0.82238806 0 0 Z " fill="#D10A0F" transform="translate(165,84)"/>
<path d="M0 0 C1.216875 0.78375 2.43375 1.5675 3.6875 2.375 C6.70902408 4.26949023 9.61199962 5.83537487 13 7 C12.01 7.99 11.02 8.98 10 10 C13.63 10.33 17.26 10.66 21 11 C15.5625757 13.71871215 10.46400618 13.96346153 4.5703125 12.32421875 C2.68676935 11.61705219 0.83851511 10.81711783 -1 10 C-0.67 6.7 -0.34 3.4 0 0 Z " fill="#D20C15" transform="translate(43,118)"/>
<path d="M0 0 C1.9375 1.0625 1.9375 1.0625 3 3 C2.875 6.5625 2.875 6.5625 2 10 C-1 12 -1 12 -4.0625 11.8125 C-7 11 -7 11 -9 8 C-9.35384949 5.16920408 -9.3920891 3.63169911 -7.875 1.1875 C-5.12844028 -0.55198782 -3.18153026 -0.39769128 0 0 Z M0 3 C-0.33 4.32 -0.66 5.64 -1 7 C-0.01 7.495 -0.01 7.495 1 8 C1 6.35 1 4.7 1 3 C0.67 3 0.34 3 0 3 Z M-7 4 C-6 8 -6 8 -6 8 Z M-4 7 C-4.33 7.99 -4.66 8.98 -5 10 C-3.68 9.67 -2.36 9.34 -1 9 C-1.99 8.34 -2.98 7.68 -4 7 Z " fill="#A52A2C" transform="translate(206,148)"/>
<path d="M0 0 C0 3 0 3 -2.5 5.5625 C-3.325 6.366875 -4.15 7.17125 -5 8 C-5 8.66 -5 9.32 -5 10 C-3.02 10.66 -1.04 11.32 1 12 C1 11.34 1 10.68 1 10 C1.99 10 2.98 10 4 10 C4 9.34 4 8.68 4 8 C4.99 8.33 5.98 8.66 7 9 C-3.37357631 16.66742597 -3.37357631 16.66742597 -9 18 C-9.042721 16.33388095 -9.04063832 14.66617115 -9 13 C-8.67 12.67 -8.34 12.34 -8 12 C-8.99 11.67 -9.98 11.34 -11 11 C-11 11.99 -11 12.98 -11 14 C-12.98 14 -14.96 14 -17 14 C-13.07407605 10.8339323 -9.0891279 7.75088469 -5.0859375 4.68359375 C-3.26075186 3.21045702 -1.61744949 1.69471618 0 0 Z " fill="#C30E14" transform="translate(183,139)"/>
<path d="M0 0 C0.66 0 1.32 0 2 0 C4.84769874 5.02535072 3.73396892 9.49523308 3 15 C-0.63 15 -4.26 15 -8 15 C-7.67 12.36 -7.34 9.72 -7 7 C-6.34 7 -5.68 7 -5 7 C-5 7.99 -5 8.98 -5 10 C-4.34 9.34 -3.68 8.68 -3 8 C-1.68 8 -0.36 8 1 8 C0.67 7.34 0.34 6.68 0 6 C-0.039992 4.00039988 -0.04346799 1.99952758 0 0 Z " fill="#E30613" transform="translate(146,114)"/>
<path d="M0 0 C-0.33 0.66 -0.66 1.32 -1 2 C-2.65 2 -4.3 2 -6 2 C-5.979375 2.804375 -5.95875 3.60875 -5.9375 4.4375 C-6 7 -6 7 -7 8 C-7.04080783 9.99958364 -7.04254356 12.00045254 -7 14 C-5.35 14.33 -3.7 14.66 -2 15 C-2 15.33 -2 15.66 -2 16 C-8.27586207 16.36206897 -8.27586207 16.36206897 -11.375 14.8125 C-13.47115817 12.47447742 -13.92522941 11.14036487 -14 8 C-12.92948162 4.86491046 -11.72871778 3.42230994 -8.86328125 1.76171875 C-2.46913965 -1.23456983 -2.46913965 -1.23456983 0 0 Z " fill="#D30A14" transform="translate(166,115)"/>
<path d="M0 0 C1.60080151 4.00200378 0.29279692 7.04556236 -1 11 C0.98 10.67 2.96 10.34 5 10 C5.33 10.99 5.66 11.98 6 13 C6.66 13.66 7.32 14.32 8 15 C7.67 15.99 7.34 16.98 7 18 C11.29 18 15.58 18 20 18 C15.731164 20.84589067 12.00842212 20.49928196 7 20 C3.45292563 18.77464704 1.61228483 17.65178707 -0.9375 14.9375 C-2.52211032 10.55651852 -1.86421631 6.52113163 -1 2 C-0.67 1.34 -0.34 0.68 0 0 Z " fill="#CB0D13" transform="translate(80,111)"/>
<path d="M0 0 C11.22 0 22.44 0 34 0 C34 0.66 34 1.32 34 2 C22.64906646 2.73570866 11.37473908 3.13947228 0 3 C0 2.01 0 1.02 0 0 Z " fill="#DE0306" transform="translate(94,61)"/>
<path d="M0 0 C1.46373047 0.02707031 1.46373047 0.02707031 2.95703125 0.0546875 C3.69308594 0.07789062 4.42914063 0.10109375 5.1875 0.125 C5.1875 0.455 5.1875 0.785 5.1875 1.125 C1.5575 1.785 -2.0725 2.445 -5.8125 3.125 C-4.68715895 4.48118499 -4.68715895 4.48118499 -1.75 4.1875 C-0.780625 4.166875 0.18875 4.14625 1.1875 4.125 C1.1875 7.095 1.1875 10.065 1.1875 13.125 C0.8575 13.125 0.5275 13.125 0.1875 13.125 C0.1875 10.815 0.1875 8.505 0.1875 6.125 C-2.28877099 6.76421965 -2.28877099 6.76421965 -4.8125 8.125 C-6.17328035 10.64872901 -6.17328035 10.64872901 -6.8125 13.125 C-7.9375 9.375 -7.9375 9.375 -6.8125 7.125 C-10.13784757 6.01655081 -12.43432575 6.28045644 -15.8125 7.125 C-10.86690604 1.75549799 -7.31797569 -0.17633676 0 0 Z " fill="#BF1319" transform="translate(100.8125,98.875)"/>
<path d="M0 0 C2.70108504 0.090916 5.36930311 0.23740766 8.0625 0.4375 C9.20041992 0.51581055 9.20041992 0.51581055 10.36132812 0.59570312 C12.24121722 0.72575835 14.12065685 0.86228038 16 1 C16 1.33 16 1.66 16 2 C2.63189206 4.00970213 -10.49672031 4.23272257 -24 4 C-24 3.34 -24 2.68 -24 2 C-23.30849854 1.97494385 -22.61699707 1.9498877 -21.90454102 1.92407227 C-18.79032134 1.80847839 -15.67643211 1.68558758 -12.5625 1.5625 C-10.92958008 1.50352539 -10.92958008 1.50352539 -9.26367188 1.44335938 C-8.22919922 1.40146484 -7.19472656 1.35957031 -6.12890625 1.31640625 C-5.17056885 1.27974854 -4.21223145 1.24309082 -3.22485352 1.20532227 C-1.02861075 1.24165576 -1.02861075 1.24165576 0 0 Z " fill="#CA0D0E" transform="translate(125,166)"/>
<path d="M0 0 C-0.185625 0.7425 -0.37125 1.485 -0.5625 2.25 C-1.22052711 5.22840916 -1.22052711 5.22840916 0 9 C-2.64 9.99 -5.28 10.98 -8 12 C-9.125 7.25 -9.125 7.25 -8 5 C-7.34 5 -6.68 5 -6 5 C-6 4.34 -6 3.68 -6 3 C-6.66 3 -7.32 3 -8 3 C-8 2.01 -8 1.02 -8 0 C-4.71303767 -0.79953138 -3.28976808 -1.09658936 0 0 Z " fill="#E40612" transform="translate(133,89)"/>
<path d="M0 0 C5.54050113 0.56825653 10.03715966 2.62886517 15 5 C15 5.33 15 5.66 15 6 C12.36 6 9.72 6 7 6 C7.66 7.32 8.32 8.64 9 10 C10.32 9.67 11.64 9.34 13 9 C13 10.65 13 12.3 13 14 C8.71 11.69 4.42 9.38 0 7 C1.32 6.34 2.64 5.68 4 5 C4 4.34 4 3.68 4 3 C2.0399719 1.36323743 2.0399719 1.36323743 0 0 Z " fill="#C60F17" transform="translate(160,67)"/>
<path d="M0 0 C1.7074998 1.28062485 3.37373596 2.61767557 5 4 C5 4.66 5 5.32 5 6 C7.475 6.99 7.475 6.99 10 8 C9 10 8 12 7 14 C4.1048317 13.70049983 3.16176506 13.19065168 1.25 10.9375 C-0.40740878 7.04258936 -0.21413087 4.21124039 0 0 Z " fill="#E20610" transform="translate(40,139)"/>
<path d="M0 0 C0 0.66 0 1.32 0 2 C-11.05994427 2.10611887 -21.9760632 2.00708069 -33 1 C-33 0.67 -33 0.34 -33 0 C-6.14361702 -1.63829787 -6.14361702 -1.63829787 0 0 Z " fill="#CB0B0F" transform="translate(143,63)"/>
<path d="M0 0 C0.33 0 0.66 0 1 0 C1.125 6.75 1.125 6.75 0 9 C3.63 9 7.26 9 11 9 C11 6.69 11 4.38 11 2 C11.66 2 12.32 2 13 2 C13 4.97 13 7.94 13 11 C8.05 11 3.1 11 -2 11 C-1.34 7.37 -0.68 3.74 0 0 Z " fill="#B6191D" transform="translate(138,120)"/>
<path d="M0 0 C7.25650558 0.23791822 7.25650558 0.23791822 10.5 3.5625 C10.995 4.366875 11.49 5.17125 12 6 C11.01 7.485 11.01 7.485 10 9 C8.68 9 7.36 9 6 9 C6 7.35 6 5.7 6 4 C4.68 4.33 3.36 4.66 2 5 C1.01 3.68 0.02 2.36 -1 1 C-0.67 0.67 -0.34 0.34 0 0 Z " fill="#E10711" transform="translate(167,72)"/>
<path d="M0 0 C0.33 0 0.66 0 1 0 C1 6.27 1 12.54 1 19 C-0.98 19.99 -0.98 19.99 -3 21 C-3.65772428 24.02934491 -3.65772428 24.02934491 -4 27 C-4.66 27.33 -5.32 27.66 -6 28 C-5.73445313 26.98421875 -5.46890625 25.9684375 -5.1953125 24.921875 C-3.06490194 16.6579762 -1.21744411 8.45803275 0 0 Z " fill="#BD1015" transform="translate(118,110)"/>
<path d="M0 0 C0.87785156 -0.00257812 1.75570312 -0.00515625 2.66015625 -0.0078125 C4.9375 0.125 4.9375 0.125 6.9375 1.125 C6.43146008 3.29374252 5.93766187 5.12467627 4.9375 7.125 C2.61593403 7.53229228 0.2806213 7.86938677 -2.0625 8.125 C-2.0625 7.465 -2.0625 6.805 -2.0625 6.125 C-0.0825 6.125 1.8975 6.125 3.9375 6.125 C4.2675 4.805 4.5975 3.485 4.9375 2.125 C3.72513672 2.3415625 3.72513672 2.3415625 2.48828125 2.5625 C1.41964844 2.748125 0.35101563 2.93375 -0.75 3.125 C-1.80574219 3.310625 -2.86148438 3.49625 -3.94921875 3.6875 C-6.71154062 4.07568074 -9.27992043 4.20759976 -12.0625 4.125 C-8.02992706 0.9267525 -5.12686292 -0.01510122 0 0 Z " fill="#B71619" transform="translate(137.0625,84.875)"/>
<path d="M0 0 C1.32 0.99 2.64 1.98 4 3 C3.67 3.99 3.34 4.98 3 6 C-1.62 6 -6.24 6 -11 6 C-7.19409895 3.14557422 -4.32409846 1.74627053 0 0 Z " fill="#E1050F" transform="translate(61,123)"/>
<path d="M0 0 C0 0.99 0 1.98 0 3 C-0.66 3 -1.32 3 -2 3 C-2.66 4.32 -3.32 5.64 -4 7 C-5.65 7 -7.3 7 -9 7 C-8.75 4.125 -8.75 4.125 -8 1 C-5.16896222 -1.24530582 -3.33143942 -1.18979979 0 0 Z " fill="#E30512" transform="translate(169,102)"/>
<path d="M0 0 C1.98 0 3.96 0 6 0 C6 1.98 6 3.96 6 6 C4.02 6.66 2.04 7.32 0 8 C0 6.68 0 5.36 0 4 C-0.66 4 -1.32 4 -2 4 C-1.34 2.68 -0.68 1.36 0 0 Z " fill="#BE1719" transform="translate(200,148)"/>
<path d="M0 0 C0.66 0.33 1.32 0.66 2 1 C1.67 1.66 1.34 2.32 1 3 C1.99 3 2.98 3 4 3 C4.25 10.625 4.25 10.625 2 14 C-0.31 13.67 -2.62 13.34 -5 13 C-3.125 7.25 -3.125 7.25 -2 5 C-1.34 5 -0.68 5 0 5 C0 4.01 0 3.02 0 2 C-0.66 1.67 -1.32 1.34 -2 1 C-1.34 0.67 -0.68 0.34 0 0 Z M-0.625 6.25 C-1.40875 7.1575 -2.1925 8.065 -3 9 C-2.95502158 11.27523089 -2.95502158 11.27523089 -2 13 C0.06402968 12.51294288 0.06402968 12.51294288 2 11 C2.81870185 7.43793339 2.81870185 7.43793339 3 4 C1.55032124 3.89153477 1.55032124 3.89153477 -0.625 6.25 Z " fill="#BB0D14" transform="translate(168,112)"/>
<path d="M0 0 C0.33 0.66 0.66 1.32 1 2 C3.32156597 2.40729228 5.6568787 2.74438677 8 3 C8 3.66 8 4.32 8 5 C10.475 5.495 10.475 5.495 13 6 C12.67 6.66 12.34 7.32 12 8 C4.83292123 7.67422369 -0.76927124 4.34556372 -7 1 C-3.375 -1.125 -3.375 -1.125 0 0 Z " fill="#CC151D" transform="translate(55,155)"/>
<path d="M0 0 C0.33 1.32 0.66 2.64 1 4 C2.65 4 4.3 4 6 4 C6 4.66 6 5.32 6 6 C11.28 6 16.56 6 22 6 C16.5625757 8.71871215 11.46400618 8.96346153 5.5703125 7.32421875 C3.68676935 6.61705219 1.83851511 5.81711783 0 5 C0 3.35 0 1.7 0 0 Z " fill="#BC151B" transform="translate(42,123)"/>
<path d="M0 0 C10.89 0 21.78 0 33 0 C33 0.66 33 1.32 33 2 C17.655 2.495 17.655 2.495 2 3 C2 2.34 2 1.68 2 1 C1.34 0.67 0.68 0.34 0 0 Z " fill="#BD1719" transform="translate(65,153)"/>
<path d="M0 0 C0 0.99 0 1.98 0 3 C2.64 3 5.28 3 8 3 C8 3.33 8 3.66 8 4 C-0.91 4.99 -0.91 4.99 -10 6 C-8 4 -8 4 -4.875 3.875 C-3.92625 3.91625 -2.9775 3.9575 -2 4 C-2 3.34 -2 2.68 -2 2 C-5.3 2 -8.6 2 -12 2 C-12 1.67 -12 1.34 -12 1 C-7.9472484 0.01751476 -4.16138263 -0.08159574 0 0 Z " fill="#BC1113" transform="translate(94,61)"/>
<path d="M0 0 C1.32 0.33 2.64 0.66 4 1 C3.34 2.98 2.68 4.96 2 7 C-1.3 6.67 -4.6 6.34 -8 6 C-7.34 5.01 -6.68 4.02 -6 3 C-2.875 2.8125 -2.875 2.8125 0 3 C0 2.01 0 1.02 0 0 Z " fill="#E3050D" transform="translate(172,150)"/>
<path d="M0 0 C0 2.64 0 5.28 0 8 C-3.35595828 7.40072174 -5.37801226 6.15377564 -8 4 C-4.5 0 -4.5 0 0 0 Z " fill="#C71014" transform="translate(78,87)"/>
<path d="M0 0 C2.30923528 3.46385292 2.21857128 5.32059786 1.69140625 9.37109375 C0.38360035 14.34371166 -2.33581981 18.64117309 -5 23 C-5.33 21.68 -5.66 20.36 -6 19 C-5.34 19 -4.68 19 -4 19 C-4 18.01 -4 17.02 -4 16 C-4.66 15.67 -5.32 15.34 -6 15 C-5.360625 14.71125 -4.72125 14.4225 -4.0625 14.125 C-1.84793921 13.17176549 -1.84793921 13.17176549 -1 11 C-0.7724985 9.12943209 -0.59037189 7.25314042 -0.4375 5.375 C-0.35371094 4.37210937 -0.26992187 3.36921875 -0.18359375 2.3359375 C-0.12300781 1.56507812 -0.06242188 0.79421875 0 0 Z " fill="#BD1419" transform="translate(207,114)"/>
<path d="M0 0 C2.64 0 5.28 0 8 0 C7.01 1.98 6.02 3.96 5 6 C4.67 4.68 4.34 3.36 4 2 C3.01 2 2.02 2 1 2 C0.566875 2.928125 0.566875 2.928125 0.125 3.875 C-1 6 -1 6 -3 8 C-6.125 8.125 -6.125 8.125 -9 8 C-9 7.67 -9 7.34 -9 7 C-7.35 7 -5.7 7 -4 7 C-3.67 5.68 -3.34 4.36 -3 3 C-2.01 3 -1.02 3 0 3 C0 2.01 0 1.02 0 0 Z " fill="#C10C12" transform="translate(169,102)"/>
<path d="M0 0 C3.45925163 1.2491742 6.14693203 2.67527795 9 5 C7.68 5.33 6.36 5.66 5 6 C5 5.34 5 4.68 5 4 C4.01 4.33 3.02 4.66 2 5 C1.67 5.99 1.34 6.98 1 8 C-0.875 8.875 -0.875 8.875 -3 9 C-4.75 7.5625 -4.75 7.5625 -6 6 C-4.68 6.33 -3.36 6.66 -2 7 C-0.62446506 3.57330419 -0.62446506 3.57330419 0 0 Z " fill="#CA0E15" transform="translate(49,146)"/>
<path d="M0 0 C3 2 3 2 3.51171875 4.3828125 C3.56972656 5.28773437 3.62773437 6.19265625 3.6875 7.125 C3.75324219 8.03507812 3.81898438 8.94515625 3.88671875 9.8828125 C3.92410156 10.58148438 3.96148437 11.28015625 4 12 C2.68 12 1.36 12 0 12 C0 10.35 0 8.7 0 7 C-0.99 7 -1.98 7 -3 7 C-1.125 2.25 -1.125 2.25 0 0 Z " fill="#D70914" transform="translate(172,108)"/>
<path d="M0 0 C-0.33 0.99 -0.66 1.98 -1 3 C-1.66 3 -2.32 3 -3 3 C-3 3.66 -3 4.32 -3 5 C-5.64 4.67 -8.28 4.34 -11 4 C-10.01 3.67 -9.02 3.34 -8 3 C-7.67 2.01 -7.34 1.02 -7 0 C-3.86650268 -1.04449911 -3.01031744 -0.93423645 0 0 Z " fill="#D40A0F" transform="translate(73,66)"/>
<path d="M0 0 C0.33 0.66 0.66 1.32 1 2 C-0.43775696 5.21783702 -2.04417512 8.06626269 -4 11 C-4.66 11 -5.32 11 -6 11 C-6 11.99 -6 12.98 -6 14 C-6.66 14 -7.32 14 -8 14 C-6.58036591 8.32146365 -3.60636039 4.46825784 0 0 Z " fill="#C31117" transform="translate(27,89)"/>
<path d="M0 0 C3.37462715 0.54723683 5.08235 1.0549 8 3 C8 3.99 8 4.98 8 6 C6.35 6 4.7 6 3 6 C3 5.34 3 4.68 3 4 C1.68 4 0.36 4 -1 4 C-0.67 2.68 -0.34 1.36 0 0 Z " fill="#E0060F" transform="translate(157,67)"/>
<path d="M0 0 C0 0.33 0 0.66 0 1 C-5.56890517 0.52013969 -10.67067568 -0.29915181 -16 -2 C-16 -2.33 -16 -2.66 -16 -3 C-9.5589964 -4.64451156 -5.78217394 -3.05498079 0 0 Z " fill="#C91012" transform="translate(84,166)"/>
<path d="M0 0 C-2.97 2.97 -5.94 5.94 -9 9 C-9.66 8.67 -10.32 8.34 -11 8 C-10.34 6.35 -9.68 4.7 -9 3 C-7.68 3 -6.36 3 -5 3 C-5.33 2.01 -5.66 1.02 -6 0 C-4 -1 -4 -1 0 0 Z " fill="#C11114" transform="translate(201,138)"/>
<path d="M0 0 C0.33 0 0.66 0 1 0 C1.31293706 8.13636364 1.31293706 8.13636364 -1 11 C-3.625 11.75 -3.625 11.75 -6 12 C-4 8 -2 4 0 0 Z " fill="#C00F15" transform="translate(190,127)"/>
<path d="M0 0 C1.60080151 4.00200378 0.29279692 7.04556236 -1 11 C-0.34 11 0.32 11 1 11 C1.309375 11.78375 1.61875 12.5675 1.9375 13.375 C2.92875038 15.92330128 2.92875038 15.92330128 4 18 C1.63046225 17.0521849 0.26485802 16.4040207 -1.15234375 14.2421875 C-2.17981632 11.52435683 -2.04311256 9.74560737 -1.6875 6.875 C-1.58824219 6.00617188 -1.48898438 5.13734375 -1.38671875 4.2421875 C-1 2 -1 2 0 0 Z " fill="#BA1218" transform="translate(80,111)"/>
<path d="M0 0 C2.97 0 5.94 0 9 0 C6.70735203 2.29264797 4.66128825 4.19719183 2 6 C1.34 6 0.68 6 0 6 C0 4.02 0 2.04 0 0 Z " fill="#C80D12" transform="translate(49,77)"/>
<path d="M0 0 C1.43088528 2.86177057 0.59991697 4.93375773 0 8 C0.99 8 1.98 8 3 8 C3.33 8.66 3.66 9.32 4 10 C7.02934491 10.65772428 7.02934491 10.65772428 10 11 C10 11.33 10 11.66 10 12 C3.72413793 12.36206897 3.72413793 12.36206897 0.625 10.8125 C-1.43941062 8.50988815 -1.8498476 7.0781241 -2 4 C-1.0625 1.6875 -1.0625 1.6875 0 0 Z " fill="#B0151D" transform="translate(154,119)"/>
<path d="M0 0 C1.98 0 3.96 0 6 0 C6.33 1.65 6.66 3.3 7 5 C2.375 9 2.375 9 -1 9 C-1 8.34 -1 7.68 -1 7 C-0.01 7 0.98 7 2 7 C2 6.34 2 5.68 2 5 C2.99 5 3.98 5 5 5 C5 3.68 5 2.36 5 1 C3.35 1 1.7 1 0 1 C0 0.67 0 0.34 0 0 Z " fill="#B9141A" transform="translate(159,84)"/>
<path d="M0 0 C0.33 0.99 0.66 1.98 1 3 C1.66 3 2.32 3 3 3 C3 3.66 3 4.32 3 5 C2.071875 5.12375 2.071875 5.12375 1.125 5.25 C-1.18437567 5.81258459 -1.18437567 5.81258459 -2.25 8.0625 C-2.4975 8.701875 -2.745 9.34125 -3 10 C-3.33 9.34 -3.66 8.68 -4 8 C-3.22265625 6.0546875 -3.22265625 6.0546875 -2.0625 3.875 C-1.49208984 2.78832031 -1.49208984 2.78832031 -0.91015625 1.6796875 C-0.60980469 1.12539062 -0.30945313 0.57109375 0 0 Z " fill="#C20C13" transform="translate(124,89)"/>
<path d="M0 0 C-0.33 1.65 -0.66 3.3 -1 5 C-2.32 5.33 -3.64 5.66 -5 6 C-5.33 4.35 -5.66 2.7 -6 1 C-3 0 -3 0 0 0 Z " fill="#E20615" transform="translate(44,79)"/>
<path d="M0 0 C2.97 0.495 2.97 0.495 6 1 C6 1.66 6 2.32 6 3 C5.34 3 4.68 3 4 3 C3.67 3.99 3.34 4.98 3 6 C1.35 5.67 -0.3 5.34 -2 5 C-1.34 3.35 -0.68 1.7 0 0 Z " fill="#E50516" transform="translate(115,133)"/>
<path d="M0 0 C2.97 0.495 2.97 0.495 6 1 C5.67 2.32 5.34 3.64 5 5 C4.34 4.67 3.68 4.34 3 4 C2.67 4.66 2.34 5.32 2 6 C1.01 6 0.02 6 -1 6 C-0.67 4.02 -0.34 2.04 0 0 Z " fill="#E60514" transform="translate(180,78)"/>
<path d="M0 0 C0.33 0.99 0.66 1.98 1 3 C2.98 3 4.96 3 7 3 C3.99382731 6.00617269 1.17618402 5.59585316 -3 6 C-2.01 4.02 -1.02 2.04 0 0 Z " fill="#B2151D" transform="translate(111,138)"/>
<path d="M0 0 C0.99 0 1.98 0 3 0 C3 1.32 3 2.64 3 4 C2.01 4 1.02 4 0 4 C0 4.66 0 5.32 0 6 C-1.65 6.33 -3.3 6.66 -5 7 C-4.34 6.01 -3.68 5.02 -3 4 C-2.34 4 -1.68 4 -1 4 C-0.67 2.68 -0.34 1.36 0 0 Z " fill="#E10711" transform="translate(161,85)"/>
<path d="M0 0 C5.28 0.66 10.56 1.32 16 2 C16 2.33 16 2.66 16 3 C10.72 3 5.44 3 0 3 C0 2.01 0 1.02 0 0 Z " fill="#D6090D" transform="translate(94,61)"/>
<path d="M0 0 C0.99 0.33 1.98 0.66 3 1 C1.08864614 4.53600465 -0.62642766 6.78972846 -4 9 C-3.49396008 6.83125748 -3.00016187 5.00032373 -2 3 C-1.34 3 -0.68 3 0 3 C0 2.01 0 1.02 0 0 Z " fill="#C51015" transform="translate(109,117)"/>
<path d="M0 0 C0.33 0.99 0.66 1.98 1 3 C2.98 3 4.96 3 7 3 C3.36576791 5.32590854 0.22911669 5.16265833 -4 5 C-2.68 3.35 -1.36 1.7 0 0 Z " fill="#AA1819" transform="translate(151,90)"/>
<path d="M0 0 C-0.33 2.31 -0.66 4.62 -1 7 C-1.99 7 -2.98 7 -4 7 C-3.625 4.0625 -3.625 4.0625 -3 1 C-1 0 -1 0 0 0 Z " fill="#CF0A0F" transform="translate(128,127)"/>
<path d="M0 0 C0.66 0 1.32 0 2 0 C3.125 3.75 3.125 3.75 2 6 C1.34 6 0.68 6 0 6 C0 6.99 0 7.98 0 9 C-0.66 9 -1.32 9 -2 9 C-1.41196203 5.97580475 -0.77321882 2.98241547 0 0 Z " fill="#E60612" transform="translate(160,118)"/>
<path d="M0 0 C0.6875 2.0625 0.6875 2.0625 1 4 C-4.75 2.25 -4.75 2.25 -7 0 C-3.98968256 -0.93423645 -3.13349732 -1.04449911 0 0 Z " fill="#C80C13" transform="translate(55,155)"/>
<path d="M0 0 C1.32 0 2.64 0 4 0 C3.67 1.32 3.34 2.64 3 4 C1.35 4 -0.3 4 -2 4 C-1.34 2.68 -0.68 1.36 0 0 Z " fill="#E20508" transform="translate(138,87)"/>
<path d="M0 0 C0.66 0.99 1.32 1.98 2 3 C-2.455 3.495 -2.455 3.495 -7 4 C-4.61426621 2.10786631 -2.92824652 0.97608217 0 0 Z " fill="#C71115" transform="translate(132,85)"/>
<path d="M0 0 C2.31 0 4.62 0 7 0 C7 1.65 7 3.3 7 5 C3.535 3.02 3.535 3.02 0 1 C0 0.67 0 0.34 0 0 Z " fill="#C0111A" transform="translate(166,76)"/>
<path d="" fill="#FFFFFF" transform="translate(0,0)"/>
<path d="" fill="#FFFFFF" transform="translate(0,0)"/>
<path d="" fill="#FFFFFF" transform="translate(0,0)"/>
<path d="" fill="#FFFFFF" transform="translate(0,0)"/>
<path d="" fill="#FFFFFF" transform="translate(0,0)"/>
<path d="" fill="#FFFFFF" transform="translate(0,0)"/>
<path d="" fill="#FFFFFF" transform="translate(0,0)"/>
<path d="" fill="#FFFFFF" transform="translate(0,0)"/>
<path d="" fill="#FFFFFF" transform="translate(0,0)"/>
<path d="" fill="#FFFFFF" transform="translate(0,0)"/>
<path d="" fill="#FFFFFF" transform="translate(0,0)"/>
<path d="" fill="#FFFFFF" transform="translate(0,0)"/>
<path d="" fill="#FFFFFF" transform="translate(0,0)"/>
<path d="" fill="#FFFFFF" transform="translate(0,0)"/>
<path d="" fill="#FFFFFF" transform="translate(0,0)"/>
<path d="" fill="#FFFFFF" transform="translate(0,0)"/>
<path d="" fill="#FFFFFF" transform="translate(0,0)"/>
<path d="" fill="#FFFFFF" transform="translate(0,0)"/>
<path d="" fill="#FFFFFF" transform="translate(0,0)"/>
<path d="" fill="#FFFFFF" transform="translate(0,0)"/>
<path d="" fill="#FFFFFF" transform="translate(0,0)"/>
<path d="" fill="#FFFFFF" transform="translate(0,0)"/>
<path d="" fill="#FFFFFF" transform="translate(0,0)"/>
<path d="" fill="#FFFFFF" transform="translate(0,0)"/>
<path d="" fill="#FFFFFF" transform="translate(0,0)"/>
<path d="" fill="#FFFFFF" transform="translate(0,0)"/>
<path d="" fill="#FFFFFF" transform="translate(0,0)"/>
<path d="" fill="#FFFFFF" transform="translate(0,0)"/>
<path d="" fill="#FFFFFF" transform="translate(0,0)"/>
<path d="" fill="#FFFFFF" transform="translate(0,0)"/>
<path d="" fill="#FFFFFF" transform="translate(0,0)"/>
<path d="" fill="#FFFFFF" transform="translate(0,0)"/>
<path d="" fill="#FFFFFF" transform="translate(0,0)"/>
<path d="" fill="#FFFFFF" transform="translate(0,0)"/>
<path d="" fill="#FFFFFF" transform="translate(0,0)"/>
<path d="" fill="#FFFFFF" transform="translate(0,0)"/>
<path d="" fill="#FFFFFF" transform="translate(0,0)"/>
<path d="" fill="#FFFFFF" transform="translate(0,0)"/>
<path d="" fill="#FFFFFF" transform="translate(0,0)"/>
<path d="" fill="#FFFFFF" transform="translate(0,0)"/>
<path d="" fill="#FFFFFF" transform="translate(0,0)"/>
<path d="" fill="#FFFFFF" transform="translate(0,0)"/>
<path d="" fill="#FFFFFF" transform="translate(0,0)"/>
<path d="" fill="#FFFFFF" transform="translate(0,0)"/>
<path d="" fill="#FFFFFF" transform="translate(0,0)"/>
<path d="" fill="#FFFFFF" transform="translate(0,0)"/>
<path d="" fill="#FFFFFF" transform="translate(0,0)"/>
<path d="" fill="#FFFFFF" transform="translate(0,0)"/>
<path d="" fill="#FFFFFF" transform="translate(0,0)"/>
<path d="" fill="#FFFFFF" transform="translate(0,0)"/>
<path d="" fill="#FFFFFF" transform="translate(0,0)"/>
<path d="" fill="#FFFFFF" transform="translate(0,0)"/>
<path d="" fill="#FFFFFF" transform="translate(0,0)"/>
<path d="" fill="#FFFFFF" transform="translate(0,0)"/>
<path d="" fill="#FFFFFF" transform="translate(0,0)"/>
<path d="" fill="#FFFFFF" transform="translate(0,0)"/>
<path d="" fill="#FFFFFF" transform="translate(0,0)"/>
<path d="" fill="#FFFFFF" transform="translate(0,0)"/>
<path d="" fill="#FFFFFF" transform="translate(0,0)"/>
<path d="" fill="#FFFFFF" transform="translate(0,0)"/>
<path d="" fill="#FFFFFF" transform="translate(0,0)"/>
<path d="" fill="#FFFFFF" transform="translate(0,0)"/>
<path d="" fill="#FFFFFF" transform="translate(0,0)"/>
<path d="" fill="#FFFFFF" transform="translate(0,0)"/>
<path d="" fill="#FFFFFF" transform="translate(0,0)"/>
<path d="" fill="#FFFFFF" transform="translate(0,0)"/>
<path d="" fill="#FFFFFF" transform="translate(0,0)"/>
<path d="" fill="#FFFFFF" transform="translate(0,0)"/>
</svg>
